<?xml version="1.0" encoding="utf-8"?>
<!-- Generator: Adobe Illustrator 27.2.0, SVG Export Plug-In . SVG Version: 6.00 Build 0)  -->
<svg version="1.1" id="Layer_1" xmlns="http://www.w3.org/2000/svg" xmlns:xlink="http://www.w3.org/1999/xlink" x="0px" y="0px"
	 viewBox="0 0 735.4 350.8" style="enable-background:new 0 0 735.4 350.8;" xml:space="preserve">
<style type="text/css">
	.st0{fill:none;stroke:#3F8BBE;stroke-miterlimit:10;}
	.st1{fill:#3F8BBE;}
</style>
<g>
	<path class="st0" d="M54.2,238.6l-6.7-6.3c-2,2.7-4.8,4.5-8.1,5.6c-3.4,1-6.9,1.5-10.4,1.5c-3.4,0-6.6-0.4-9.6-1.3
		c-2.9-0.9-5.5-2.4-7.8-4.5c-2.2-2.1-4-4.9-5.2-8.3c-1.2-3.4-1.8-7.7-1.8-12.6V105.4c0-8.8,2.1-15.5,6.3-20.1s10.7-6.9,19.5-6.9
		s15.1,2.3,18.9,6.9c3.8,4.6,5.7,11.3,5.7,20.1v27.8H36.4v-27.9c0-4-2-5.9-5.9-5.9c-3.3,0-5,2-5,5.9v107.4c0,4,1.6,5.9,4.8,5.9
		c4,0,5.9-2,5.9-5.9v-30.8h-6.7v-19.9h26.8v76.8H54.2z"/>
	<path class="st0" d="M103.6,237.6l-2.3-22.4H86l-2.7,22.4H63.2L82.3,80.1h24.1l18,157.5H103.6z M99,196.3c-1-10.3-2-20.7-2.9-31
		c-0.9-10.3-1.7-20.9-2.5-31.8c-1.5,21.4-3.4,42.4-5.7,62.8H99z"/>
	<path class="st0" d="M158.7,190.9c0-2-0.2-3.9-0.6-5.6c-0.4-1.7-1.1-3.5-2.3-5.5c-1.1-2-2.7-4.3-4.7-6.9c-2-2.6-4.6-6-7.8-10
		c-2.4-3.2-4.6-6.2-6.4-9c-1.9-2.8-3.4-5.6-4.6-8.4c-1.2-2.8-2.1-5.6-2.8-8.5c-0.6-2.9-1-6-1-9.3v-23.5c0-17.2,8.5-25.8,25.5-25.8
		c8.9,0,15.3,2.1,19,6.3c3.8,4.2,5.6,10.7,5.6,19.5v28.9h-19.1v-28.9c0-3.3-1.7-5-5-5c-3.3,0-5,1.7-5,5v23.4c0,2,0.3,3.9,0.8,5.5
		c0.5,1.6,1.3,3.3,2.5,5.3s2.7,4.1,4.6,6.6s4.3,5.6,7.3,9.5c2.8,3.7,5.1,7.1,7,10c1.8,3,3.4,5.9,4.5,8.6c1.1,2.7,1.9,5.5,2.4,8.3
		c0.4,2.8,0.7,5.9,0.7,9.4v22.6c0,8.4-2,14.9-5.9,19.3c-4,4.5-10.4,6.7-19.3,6.7c-8.8,0-15.2-2.2-19.3-6.7
		c-4.1-4.5-6.1-10.9-6.1-19.3v-33.5h19.9v33.5c0,3.4,1.7,5.2,5,5.2c3.4,0,5.2-1.7,5.2-5.2V190.9z"/>
	<path class="st0" d="M199.1,237.6V101h-15.3V80.1h51.3V101h-15.1v136.7H199.1z"/>
	<path class="st0" d="M274.9,237.6c-1-12-2.1-23.7-3.3-35.1c-1.1-11.4-2.5-23.1-4-35.1h-3.4v70.2h-20.9V80.1h24.9
		c9.6,0,16.7,2.1,21.2,6.4c4.6,4.3,6.9,11.6,6.9,21.9V141c0,6.1-0.7,10.9-2.1,14.3c-1.4,3.4-3.7,6-6.9,7.9c2,12.8,3.9,25.3,5.6,37.5
		c1.7,12.3,3.3,24.6,4.8,36.9H274.9z M275.3,108.4c0-5-2.4-7.5-7.1-7.5h-4v47.5h4.2c4.6,0,6.9-2.4,6.9-7.3V108.4z"/>
	<path class="st0" d="M304,105.2c0-17.9,8.5-26.8,25.6-26.8c17.1,0,25.6,8.9,25.6,26.8v107.4c0,17.9-8.6,26.8-25.6,26.8
		c-17.1,0-25.6-8.9-25.6-26.8V105.2z M334.4,105.2c0-4-1.6-5.9-4.8-5.9c-3.2,0-4.8,2-4.8,5.9v107.4c0,4,1.6,5.9,4.8,5.9
		c3.2,0,4.8-2,4.8-5.9V105.2z"/>
	<path class="st0" d="M402.9,237.6c-3.2-15.2-5.8-27.9-7.9-38.3c-2.1-10.3-3.9-19.1-5.4-26.2c-1.5-7.1-2.6-13.1-3.5-18
		c-0.9-4.8-1.7-9.5-2.5-14c0.3,9.3,0.4,18.6,0.5,27.8s0.1,18.6,0.1,28.1v40.6h-17.4V80.1h23.9c2.7,16.6,4.9,30.3,6.6,41.2
		c1.7,10.8,3.1,19.8,4.2,27c1.1,7.1,1.9,13,2.6,17.5c0.6,4.5,1.3,8.8,1.9,12.9c-0.3-8.4-0.4-16.7-0.5-24.9
		c-0.1-8.2-0.1-16.3-0.1-24.5V80.1h17.4v157.5H402.9z"/>
	<path class="st0" d="M434.3,105.2c0-17.9,8.5-26.8,25.6-26.8c17.1,0,25.6,8.9,25.6,26.8v107.4c0,17.9-8.6,26.8-25.6,26.8
		c-17.1,0-25.6-8.9-25.6-26.8V105.2z M447.1,73L468,42.2h23.9L465.1,73H447.1z M464.8,105.2c0-4-1.6-5.9-4.8-5.9
		c-3.2,0-4.8,2-4.8,5.9v107.4c0,4,1.6,5.9,4.8,5.9c3.2,0,4.8-2,4.8-5.9V105.2z"/>
	<path class="st0" d="M553.6,237.6v-44.4c0-8.8,0-17.5,0.1-26.2c0.1-8.7,0.3-17.4,0.7-26.2c-0.4,4.3-0.9,9-1.4,14.1
		c-0.6,5-1.3,11.2-2.1,18.6c-0.8,7.3-1.9,16.1-3.1,26.4c-1.2,10.3-2.7,22.9-4.3,37.8h-17.6l-10.9-99.7c0.8,18.4,1.1,36.9,1.1,55.5
		v44.2h-18.9V80.1h27.6c1.3,14.2,2.4,26.4,3.3,36.8c1,10.3,1.8,19.2,2.4,26.7c0.6,7.5,1.2,13.7,1.7,18.7c0.5,5,0.9,9.2,1.1,12.5
		c0.3,3.4,0.5,6.2,0.7,8.5s0.3,4.5,0.5,6.5c0.1-2,0.3-4.2,0.5-6.5s0.4-5.2,0.7-8.6c0.3-3.4,0.6-7.7,1.1-12.6c0.4-5,1-11.2,1.7-18.7
		c0.7-7.5,1.6-16.4,2.6-26.7c1-10.3,2.2-22.5,3.6-36.6h27.9v157.5H553.6z"/>
	<path class="st0" d="M585.5,237.6V80.1h20.9v157.5H585.5z"/>
	<path class="st0" d="M649.5,179.8h18.9v32.5c0,9.2-1.9,16-5.6,20.4c-3.7,4.4-9.8,6.6-18.2,6.6c-17.4,0-26-8.9-26-26.6V105.6
		c0-18.1,8.7-27.2,26-27.2c15.8,0,23.7,8.9,23.7,26.8v27.9h-18.9v-27.9c0-4-1.6-5.9-4.8-5.9c-3.2,0-4.8,2-4.8,5.9v107.4
		c0,4,1.6,5.9,4.8,5.9c3.2,0,4.8-2,4.8-5.9V179.8z"/>
	<path class="st0" d="M712.6,237.6l-2.3-22.4H695l-2.7,22.4h-20.1l19.1-157.5h24.1l18,157.5H712.6z M708,196.3
		c-1-10.3-2-20.7-2.9-31c-0.9-10.3-1.7-20.9-2.5-31.8c-1.5,21.4-3.4,42.4-5.7,62.8H708z"/>
</g>
<g>
	<path class="st0" d="M2.3,68.7v-53h52.9v13H22.9v7.2h26.4v13H22.9v19.7H2.3z"/>
	<path class="st0" d="M61.7,68.7v-53h56.1v13H82.3V35h28.8v13.1H82.3V55h37.4v13.6H61.7z"/>
	<path class="st0" d="M166.5,15.7c4.6,0,8.3,0.2,11.1,0.7c2.8,0.4,4.9,1.1,6.5,2.1c2,1.2,3.5,2.7,4.5,4.7s1.6,4.2,1.6,6.8
		c0,3.1-0.8,5.9-2.3,8.3c-1.6,2.4-3.7,4.1-6.4,5.1c2.3,1,4,2.2,4.9,3.6c0.9,1.4,1.5,4,1.7,7.6c0,0.4,0,1,0.1,1.7
		c0.3,6.9,1.3,10.8,2.8,11.5v0.8h-22.8c-0.7-1.1-1.1-3.3-1.1-6.5c0-1.9-0.1-3.3-0.3-4.4c-0.2-1.9-0.9-3.3-2-4.1
		c-1.1-0.8-2.9-1.2-5.5-1.2H147v16.2h-20.8v-53H166.5z M147,38.6h12c3.1,0,5.3-0.4,6.6-1.1s1.9-2,1.9-3.7c0-1.7-0.6-2.9-1.8-3.6
		c-1.2-0.7-3.6-1-7.2-1H147V38.6z"/>
	<path class="st0" d="M198.9,68.7v-53h20.5v53H198.9z"/>
	<path class="st0" d="M223.1,68.7l23-53h26l21.4,53h-22.2l-1.8-5.2h-22.5l-1.9,5.2H223.1z M251.8,50.4h13.1l-6.4-18.6L251.8,50.4z"
		/>
</g>
<g>
	<path class="st0" d="M6.1,261.7h27.1c8.8,0,15.4,1.8,20,5.4c4.6,3.6,6.9,8.9,6.9,15.8c0,6.9-2.3,12.1-6.9,15.7
		c-4.6,3.6-11.2,5.4-20,5.4H6.1V261.7z M22.4,272.2v20.6h8.1c4.2,0,7.3-0.8,9.1-2.4c1.8-1.6,2.8-4.2,2.8-7.9c0-3.6-0.9-6.3-2.8-7.9
		c-1.9-1.6-4.9-2.4-9.1-2.4H22.4z"/>
	<path class="st0" d="M66.9,304v-42.2h44.7v10.4H83.3v5h23v10.4h-23v5.5H113V304H66.9z"/>
</g>
<g>
	<path class="st1" d="M130.1,286.1H147v0.6c0,2.6,0.4,4.6,1.3,5.8c0.8,1.3,2.1,1.9,3.9,1.9c2,0,3.4-0.6,4.2-1.8
		c0.8-1.2,1.2-3.6,1.2-7.3v-24.1h16.8v22.4c0,5.1-0.2,8.6-0.7,10.7c-0.5,2.1-1.2,3.8-2.3,5.3c-1.6,2.1-3.9,3.7-7,4.7
		c-3.1,1.1-6.8,1.6-11.3,1.6c-8.2,0-14.1-1.4-17.7-4.2c-3.6-2.8-5.3-7.3-5.3-13.6V286.1z"/>
	<path class="st1" d="M180,283c0-7.6,2.5-13.3,7.4-17.1s12.2-5.8,21.8-5.8c9.6,0,16.9,1.9,21.8,5.8c4.9,3.8,7.4,9.5,7.4,17.1
		c0,7.5-2.5,13.2-7.4,17.1c-4.9,3.8-12.2,5.8-21.8,5.8c-9.6,0-16.9-1.9-21.8-5.8C182.5,296.2,180,290.5,180,283z M198.1,283
		c0,3.8,1,6.7,2.9,8.7c1.9,2,4.7,3,8.3,3c3.6,0,6.4-1,8.3-3c1.9-2,2.9-4.9,2.9-8.7c0-3.8-1-6.7-2.9-8.7c-1.9-2-4.7-3-8.3-3
		c-3.6,0-6.4,1-8.3,3C199.1,276.3,198.1,279.2,198.1,283z"/>
	<path class="st1" d="M242.7,291.5l20.4,0c0.2,1.2,0.9,2.1,2.2,2.7c1.3,0.6,3.1,1,5.4,1c2.3,0,4-0.3,5.1-0.8
		c1.1-0.5,1.7-1.3,1.7-2.3c0-0.9-0.5-1.7-1.5-2.2c-1-0.6-2.5-1-4.5-1.2l-12.6-1.6c-5.2-0.6-9.1-2-11.8-4.2c-2.6-2.2-3.9-5.1-3.9-8.7
		c0-4.9,2-8.4,6-10.6c4-2.2,10.3-3.3,19-3.3c9,0,15.8,1.1,20.2,3.3c4.4,2.2,6.8,5.7,7.1,10.4H276c-0.2-1.4-1-2.4-2.5-3.1
		c-1.4-0.7-3.4-1-6-1c-1.9,0-3.4,0.3-4.4,0.8c-1.1,0.5-1.6,1.2-1.6,2.1c0,0.8,0.4,1.4,1.2,1.9c0.8,0.4,2.6,0.8,5.2,1.2l15.3,2.2
		c4.8,0.7,8.4,2.1,10.7,4.2c2.4,2.1,3.6,4.9,3.6,8.5c0,5.3-2.4,9.2-7.1,11.7c-4.7,2.5-12.2,3.7-22.4,3.7c-8.1,0-14.3-1.3-18.7-3.8
		C245,299.7,242.8,296.1,242.7,291.5z"/>
	<path class="st1" d="M304.3,304.7v-43.4h46v10.7h-29.2v5.2h23.6v10.7h-23.6v5.7h30.6v11.2H304.3z M311.7,256.8l5.5-9.2h17.7
		l-8.9,9.2H311.7z"/>
	<path class="st1" d="M385.8,304.7v-43.4h16.8v43.4H385.8z"/>
	<path class="st1" d="M457.8,300.8c-2,1.7-4.5,3-7.5,3.8c-3.1,0.8-6.9,1.2-11.5,1.2c-9.6,0-16.9-1.9-21.8-5.8
		c-4.9-3.8-7.4-9.5-7.4-17.1c0-7.6,2.5-13.3,7.4-17.1c4.9-3.8,12.2-5.8,21.8-5.8c8.1,0,14.6,1.4,19.5,4.1c4.9,2.8,7.7,6.6,8.3,11.5
		h-18.4c-0.9-1.8-2.1-3.1-3.6-3.9c-1.5-0.9-3.3-1.3-5.4-1.3c-3.5,0-6.3,1.1-8.4,3.4c-2.1,2.3-3.2,5.3-3.2,9.1c0,3.8,1,6.8,3.1,8.9
		s5,3.2,8.7,3.2c2.8,0,5.1-0.5,7-1.5s3-2.4,3.4-4.2h-7V280h24.2v24.7h-7.6L457.8,300.8z"/>
	<path class="st1" d="M475.2,304.7v-43.4h19.9l16.8,25v-25h16.3v43.4h-18.9l-18.2-25.4v25.4H475.2z"/>
	<path class="st1" d="M531.2,304.7l18.8-43.4h21.3l17.6,43.4h-18.2l-1.4-4.3h-18.5l-1.6,4.3H531.2z M554.7,289.7h10.8l-5.2-15.3
		L554.7,289.7z"/>
	<path class="st1" d="M627.1,279.5c-0.3-2.7-1.2-4.7-2.8-6.1s-3.8-2.1-6.7-2.1c-3.6,0-6.4,1-8.3,3c-1.9,2-2.9,4.9-2.9,8.7
		c0,3.8,1,6.7,2.9,8.7c1.9,2,4.7,3,8.3,3c2.6,0,4.7-0.6,6.3-1.8c1.6-1.2,2.6-2.9,3.2-5.3h19.4c-0.9,6-3.8,10.5-8.6,13.6
		c-4.9,3.1-11.6,4.6-20.2,4.6c-9.6,0-16.9-1.9-21.8-5.8c-4.9-3.8-7.4-9.5-7.4-17.1c0-7.6,2.5-13.3,7.4-17.1
		c4.9-3.8,12.2-5.8,21.8-5.8c9,0,16,1.7,20.9,5c4.9,3.3,7.5,8.1,7.8,14.4H627.1z"/>
	<path class="st1" d="M652.7,304.7v-43.4h16.8v43.4H652.7z"/>
	<path class="st1" d="M676.4,283c0-7.6,2.5-13.3,7.4-17.1c4.9-3.8,12.2-5.8,21.8-5.8c9.6,0,16.9,1.9,21.8,5.8
		c4.9,3.8,7.4,9.5,7.4,17.1c0,7.5-2.5,13.2-7.4,17.1c-4.9,3.8-12.2,5.8-21.8,5.8c-9.6,0-16.9-1.9-21.8-5.8
		C678.9,296.2,676.4,290.5,676.4,283z M694.5,283c0,3.8,1,6.7,2.9,8.7c1.9,2,4.7,3,8.3,3s6.4-1,8.3-3c1.9-2,2.9-4.9,2.9-8.7
		c0-3.8-1-6.7-2.9-8.7c-1.9-2-4.7-3-8.3-3s-6.4,1-8.3,3C695.5,276.3,694.5,279.2,694.5,283z"/>
</g>
</svg>
