<svg xmlns="http://www.w3.org/2000/svg" width="460" height="84.7"><style>.st0{fill:#f1ede4}</style><path class="st0" d="M0 37.3V.4h4.9v32h5.5v4.9H0zM22 37.3l-.6-5.3h-3.6l-.6 5.2h-4.7L17 .4h5.6l4.2 36.9H22zm-1.1-9.7c-.4-4.8-.9-9.7-1.3-14.7-.4 5-.8 9.9-1.3 14.7h2.6zM36.6 23.7H41v7.6c0 4.3-1.7 6.3-5.6 6.3-4 0-6.1-2-6.1-6.2v-25c0-4.3 2.1-6.4 6.1-6.4C39.1 0 41 2 41 6.3v6.5h-4.4V6.3c0-.9-.4-1.4-1.1-1.4-.7 0-1.1.4-1.1 1.4v25.1c0 .9.4 1.4 1.1 1.4.8 0 1.1-.4 1.1-1.4v-7.7zM44.7 6.3c0-4.1 2-6.3 6-6.3s6 2.2 6 6.3v25.1c0 4.1-2 6.3-6 6.3s-6-2.2-6-6.3V6.3zm7.1 0c0-.9-.4-1.4-1.1-1.4-.7 0-1.1.4-1.1 1.4v25.1c0 .9.4 1.4 1.1 1.4.8 0 1.1-.4 1.1-1.4V6.3zM67.4 26.3c0-1.9-.6-2.8-3.6-6.5-2.3-3-3.4-5.1-3.4-8.2V6c0-4.1 2-6 6-6 4.2 0 5.8 2 5.8 6v6.8h-4.5V6c0-.8-.4-1.2-1.2-1.2s-1.2.4-1.2 1.2v5.5c0 1.9.8 2.7 3.5 6.3 2.6 3.4 3.4 5.3 3.4 8.5v5.3c0 3.9-1.7 6.1-5.9 6.1-4.1 0-6-2.2-6-6.1v-7.8H65v7.8c0 .8.4 1.2 1.2 1.2.8 0 1.2-.4 1.2-1.2v-5.3zM78.2 37.3v-32h-3.6V.4h12v4.9h-3.5v32h-4.9zM89.9 37.3V.4H100v4.9h-5.2V16h3.3v4.9h-3.3v11.5h5.5v4.9H89.9zM109.9 37.3l7-36.9h3.5l-7 36.9h-3.5zM137.9 23.7h4.4v7.6c0 4.3-1.7 6.3-5.6 6.3-4 0-6.1-2-6.1-6.2v-25c0-4.3 2.1-6.4 6.1-6.4 3.7 0 5.6 2 5.6 6.3v6.5h-4.4V6.3c0-.9-.4-1.4-1.1-1.4-.7 0-1.1.4-1.1 1.4v25.1c0 .9.4 1.4 1.1 1.4.8 0 1.1-.4 1.1-1.4v-7.7zM153.4 37.3V20.9h-2.2v16.4h-4.9V.4h4.9V16h2.2V.4h4.8v36.9h-4.8zM171 37.3l-.5-5.2h-3.6l-.6 5.2h-4.7L166 .4h5.6l4.2 36.9H171zm-1.1-9.7c-.4-4.8-.9-9.7-1.3-14.7-.4 5-.8 9.9-1.3 14.7h2.6zM187.5 37.3c-3-14.2-3.8-18.5-4.5-22.6.1 4.3.1 8.7.1 13.1v9.5H179V.4h5.6c2.5 15.6 3 19.3 3.6 23.1-.1-3.9-.1-7.8-.1-11.6V.4h4.1v36.9h-4.7zM196.5 37.3V.4h10.1v4.9h-5.2V16h3.3v4.9h-3.3v11.5h5.5v4.9h-10.4zM210.5 37.3V.4h4.9v32h5.5v4.9h-10.4zM230.2 37.3l7-36.9h3.5l-7 36.9h-3.5zM258.3 37.3V20.9h-2.2v16.4h-4.9V.4h4.9V16h2.2V.4h4.8v36.9h-4.8zM274.1 26.3c0-1.9-.6-2.8-3.6-6.5-2.3-3-3.4-5.1-3.4-8.2V6c0-4.1 2-6 6-6 4.2 0 5.8 2 5.8 6v6.8h-4.5V6c0-.8-.4-1.2-1.2-1.2S272 5.2 272 6v5.5c0 1.9.8 2.7 3.5 6.3 2.6 3.4 3.4 5.3 3.4 8.5v5.3c0 3.9-1.7 6.1-5.9 6.1-4.1 0-6-2.2-6-6.1v-7.8h4.7v7.8c0 .8.4 1.2 1.2 1.2.8 0 1.2-.4 1.2-1.2v-5.3zM282.9 37.3V.4h6.1c4 0 5.6 2.1 5.6 6.5v7.6c0 1.7-.6 3.2-1.7 3.7 1.1.4 2.2 1.6 2.2 3.7V31c0 4.3-2.1 6.2-6.1 6.2h-6.1zm7.2-30.6c0-.9-.4-1.4-1.1-1.4h-1.2v11.1h1.3c.7 0 1.1-.4 1.1-1.4V6.7zm0 15.3c0-.9-.4-1.4-1.1-1.4h-1.3v11.8h1.2c.8 0 1.1-.5 1.1-1.4v-9zM305.9 23.7h4.4v7.6c0 4.3-1.7 6.3-5.6 6.3-4 0-6.1-2-6.1-6.2v-25c0-4.3 2.1-6.4 6.1-6.4 3.7 0 5.6 2 5.6 6.3v6.5h-4.4V6.3c0-.9-.4-1.4-1.1-1.4-.7 0-1.1.4-1.1 1.4v25.1c0 .9.4 1.4 1.1 1.4.8 0 1.1-.4 1.1-1.4v-7.7zM320.3 37.3l7-36.9h3.5l-7 36.9h-3.5zM348.7 37.3c-.5-5.5-1-11-1.7-16.4h-.8v16.4h-4.9V.4h5.8c4.4 0 6.6 1.8 6.6 6.6v7.6c0 2.8-.6 4.3-2.1 5.2.9 5.8 1.7 11.7 2.4 17.4h-5.3zm.1-30.3c0-1.2-.5-1.7-1.7-1.7h-.9v11.1h1c1.1 0 1.6-.6 1.6-1.7V7zM365.9 37.3l-.5-5.2h-3.6l-.6 5.2h-4.7L361 .4h5.6l4.2 36.9h-4.9zm-1-9.7c-.4-4.8-.9-9.7-1.3-14.7-.4 5-.8 9.9-1.3 14.7h2.6zM374.1 37.3V.4h6c4.4 0 6.5 2.1 6.5 6.7v6c0 4.6-2.1 6.6-6.5 6.6H379v17.5h-4.9zM381.8 7c0-1.2-.5-1.7-1.7-1.7H379V15h1.1c1.1 0 1.7-.6 1.7-1.7V7zM396.6 26.3c0-1.9-.6-2.8-3.6-6.5-2.3-3-3.4-5.1-3.4-8.2V6c0-4.1 2-6 6-6 4.2 0 5.8 2 5.8 6v6.8h-4.5V6c0-.8-.4-1.2-1.2-1.2s-1.2.4-1.2 1.2v5.5c0 1.9.8 2.7 3.5 6.3 2.6 3.4 3.4 5.3 3.4 8.5v5.3c0 3.9-1.7 6.1-5.9 6.1-4.1 0-6-2.2-6-6.1v-7.8h4.7v7.8c0 .8.4 1.2 1.2 1.2.8 0 1.2-.4 1.2-1.2v-5.3zM405.2 6.3c0-4.1 2-6.3 6-6.3s6 2.2 6 6.3v25.1c0 4.1-2 6.3-6 6.3s-6-2.2-6-6.3V6.3zm7.1 0c0-.9-.4-1.4-1.1-1.4-.7 0-1.1.4-1.1 1.4v25.1c0 .9.4 1.4 1.1 1.4.8 0 1.1-.4 1.1-1.4V6.3zM421.3 37.3V.4h6c4 0 6 2.4 6 6.3V31c0 4.3-2 6.3-6 6.3h-6zm7.1-30.6c0-.9-.4-1.4-1.2-1.4h-1.1v27.1h1.1c.8 0 1.2-.5 1.2-1.4V6.7zM437.5 37.3V.4h4.9v36.9h-4.9zM455.2 37.3l-.5-5.2H451l-.6 5.2h-4.7L450.2.4h5.6l4.2 36.9h-4.8zm-1.1-9.7c-.4-4.8-.9-9.7-1.3-14.7-.4 5-.8 9.9-1.3 14.7h2.6zM0 84.3V47.4h10.3v4.9H4.9v10.9h3.4v4.9H4.9v16.2H0zM20.5 84.3L20 79h-3.6l-.6 5.2h-4.7l4.5-36.9h5.6l4.2 36.9h-4.9zm-1.1-9.7c-.4-4.8-.9-9.7-1.3-14.7-.4 5-.8 9.9-1.3 14.7h2.6zM34.9 73.3c0-1.9-.6-2.8-3.6-6.5-2.3-3-3.4-5.1-3.4-8.2V53c0-4.1 2-6 6-6 4.2 0 5.8 2 5.8 6v6.8h-4.5V53c0-.8-.4-1.2-1.2-1.2s-1.2.4-1.2 1.2v5.5c0 1.9.8 2.7 3.5 6.3 2.6 3.4 3.4 5.3 3.4 8.5v5.3c0 3.9-1.7 6.1-5.9 6.1-4.1 0-6-2.2-6-6.1v-7.8h4.7v7.8c0 .8.4 1.2 1.2 1.2.8 0 1.2-.4 1.2-1.2v-5.3zM50.8 84.3V67.9h-2.2v16.4h-4.9V47.4h4.9V63h2.2V47.4h4.8v36.9h-4.8zM59.7 53.3c0-4.1 2-6.3 6-6.3s6 2.2 6 6.3v25.1c0 4.1-2 6.3-6 6.3s-6-2.2-6-6.3V53.3zm7.1 0c0-.9-.4-1.4-1.1-1.4-.7 0-1.1.4-1.1 1.4v25.1c0 .9.4 1.4 1.1 1.4.8 0 1.1-.4 1.1-1.4V53.3zM84.2 84.3c-3-14.2-3.8-18.5-4.5-22.6.1 4.3.1 8.7.1 13.1v9.5h-4.1V47.4h5.6c2.5 15.6 3 19.3 3.6 23.1-.1-3.9-.1-7.8-.1-11.6V47.4h4.1v36.9h-4.7zM103.1 84.3v-32h-3.6v-4.9h12v4.9H108v32h-4.9zM117.5 84.3l-3.9-36.9h5.1c1.6 18.2 2 23.4 2.2 28.4.3-5.1.7-10.1 2.4-28.4h4.8L124 84.3h-6.5zM137.5 84.3l7-36.9h3.5l-7 36.9h-3.5zM158.6 84.3V47.4h4.9v32h5.5v4.9h-10.4zM180.5 84.3L180 79h-3.6l-.6 5.2h-4.7l4.5-36.9h5.6l4.2 36.9h-4.9zm-1.1-9.7c-.4-4.8-.9-9.7-1.3-14.7-.4 5-.8 9.9-1.3 14.7h2.6zM197.1 84.3c-3-14.2-3.8-18.5-4.5-22.6.1 4.3.1 8.7.1 13.1v9.5h-4.1V47.4h5.6c2.5 15.6 3 19.3 3.6 23.1-.1-3.9-.1-7.8-.1-11.6V47.4h4.1v36.9h-4.7zM212.1 84.3l7-36.9h3.5l-7 36.9h-3.5zM240.3 84.3V67.9H238v16.4h-4.9V47.4h4.9V63h2.2V47.4h4.8v36.9h-4.7zM256.1 73.3c0-1.9-.6-2.8-3.6-6.5-2.3-3-3.4-5.1-3.4-8.2V53c0-4.1 2-6 6-6 4.2 0 5.8 2 5.8 6v6.8h-4.5V53c0-.8-.4-1.2-1.2-1.2s-1.2.4-1.2 1.2v5.5c0 1.9.8 2.7 3.5 6.3 2.6 3.4 3.4 5.3 3.4 8.5v5.3c0 3.9-1.7 6.1-5.9 6.1-4.1 0-6-2.2-6-6.1v-7.8h4.7v7.8c0 .8.4 1.2 1.2 1.2.8 0 1.2-.4 1.2-1.2v-5.3zM264.9 84.3V47.4h6.1c4 0 5.6 2.1 5.6 6.5v7.6c0 1.7-.6 3.2-1.7 3.7 1.1.4 2.2 1.6 2.2 3.7V78c0 4.3-2.1 6.2-6.1 6.2h-6.1zm7.2-30.6c0-.9-.4-1.4-1.1-1.4h-1.2v11.1h1.3c.7 0 1.1-.4 1.1-1.4v-8.3zm0 15.3c0-.9-.4-1.4-1.1-1.4h-1.3v11.8h1.2c.8 0 1.1-.5 1.1-1.4v-9zM287.9 70.7h4.4v7.6c0 4.3-1.7 6.3-5.6 6.3-4 0-6.1-2-6.1-6.2v-25c0-4.3 2.1-6.4 6.1-6.4 3.7 0 5.6 2 5.6 6.3v6.5h-4.4v-6.5c0-.9-.4-1.4-1.1-1.4-.7 0-1.1.4-1.1 1.4v25.1c0 .9.4 1.4 1.1 1.4.8 0 1.1-.4 1.1-1.4v-7.7zM302.2 84.3l7-36.9h3.5l-7 36.9h-3.5zM323.3 84.3V47.4h4.9v32h5.5v4.9h-10.4zM345.2 84.3l-.5-5.2h-3.6l-.6 5.2h-4.7l4.5-36.9h5.6l4.2 36.9h-4.9zm-1-9.7c-.4-4.8-.9-9.7-1.3-14.7-.4 5-.8 9.9-1.3 14.7h2.6zM359.6 73.3c0-1.9-.6-2.8-3.6-6.5-2.3-3-3.4-5.1-3.4-8.2V53c0-4.1 2-6 6-6 4.2 0 5.8 2 5.8 6v6.8h-4.5V53c0-.8-.4-1.2-1.2-1.2s-1.2.4-1.2 1.2v5.5c0 1.9.8 2.7 3.5 6.3 2.6 3.4 3.4 5.3 3.4 8.5v5.3c0 3.9-1.7 6.1-5.9 6.1-4.1 0-6-2.2-6-6.1v-7.8h4.7v7.8c0 .8.4 1.2 1.2 1.2.8 0 1.2-.4 1.2-1.2v-5.3zM375.5 53.3c0-4.1 2-6.3 6-6.3s6 2.2 6 6.3v25.1c0 4.1-2 6.3-6 6.3s-6-2.2-6-6.3V53.3zm7.2 0c0-.9-.4-1.4-1.1-1.4-.7 0-1.1.4-1.1 1.4v25.1c0 .9.4 1.4 1.1 1.4.8 0 1.1-.4 1.1-1.4V53.3zM399.1 84.3c-.5-5.5-1-11-1.7-16.4h-.8v16.4h-4.9V47.4h5.8c4.4 0 6.6 1.8 6.6 6.6v7.6c0 2.8-.6 4.3-2.1 5.2.9 5.8 1.7 11.7 2.4 17.4h-5.3zm0-30.3c0-1.2-.5-1.7-1.7-1.7h-.9v11.1h1c1.1 0 1.6-.6 1.6-1.7V54zM407.9 84.3V47.4H418v4.9h-5.2V63h3.3v4.9h-3.3v11.5h5.5v4.9h-10.4zM422 84.3V47.4h4.9v36.9H422zM438.8 84.3c-.5-5.5-1-11-1.7-16.4h-.8v16.4h-4.9V47.4h5.8c4.4 0 6.6 1.8 6.6 6.6v7.6c0 2.8-.6 4.3-2.1 5.2.9 5.8 1.7 11.7 2.4 17.4h-5.3zm0-30.3c0-1.2-.5-1.7-1.7-1.7h-.9v11.1h1c1.1 0 1.6-.6 1.6-1.7V54zM446.9 53.3c0-4.1 2-6.3 6-6.3s6 2.2 6 6.3v25.1c0 4.1-2 6.3-6 6.3s-6-2.2-6-6.3V53.3zm7.1 0c0-.9-.4-1.4-1.1-1.4-.7 0-1.1.4-1.1 1.4v25.1c0 .9.4 1.4 1.1 1.4.8 0 1.1-.4 1.1-1.4V53.3z"/></svg>