<?xml version="1.0" encoding="utf-8"?>
<!-- Generator: Adobe Illustrator 27.2.0, SVG Export Plug-In . SVG Version: 6.00 Build 0)  -->
<svg version="1.1" id="Layer_1" xmlns="http://www.w3.org/2000/svg" xmlns:xlink="http://www.w3.org/1999/xlink" x="0px" y="0px"
	 viewBox="0 0 460 84.7" style="enable-background:new 0 0 460 84.7;" xml:space="preserve">
<style type="text/css">
	.st0{fill:#F1EDE4;}
</style>
<path class="st0" d="M0,37.3V0.4h4.9v32h5.5v4.9C10.4,37.3,0,37.3,0,37.3z M22,37.3L21.4,32h-3.6l-0.6,5.2h-4.7L17,0.4h5.6l4.2,36.9
	C26.8,37.3,22,37.3,22,37.3z M20.9,27.6c-0.4-4.8-0.9-9.7-1.3-14.7c-0.4,5-0.8,9.9-1.3,14.7C18.3,27.6,20.9,27.6,20.9,27.6z
	 M36.6,23.7H41v7.6c0,4.3-1.7,6.3-5.6,6.3c-4,0-6.1-2-6.1-6.2v-25c0-4.3,2.1-6.4,6.1-6.4C39.1,0,41,2,41,6.3v6.5h-4.4V6.3
	c0-0.9-0.4-1.4-1.1-1.4c-0.7,0-1.1,0.4-1.1,1.4v25.1c0,0.9,0.4,1.4,1.1,1.4c0.8,0,1.1-0.4,1.1-1.4C36.6,31.4,36.6,23.7,36.6,23.7z
	 M44.7,6.3c0-4.1,2-6.3,6-6.3s6,2.2,6,6.3v25.1c0,4.1-2,6.3-6,6.3s-6-2.2-6-6.3V6.3z M51.8,6.3c0-0.9-0.4-1.4-1.1-1.4
	c-0.7,0-1.1,0.4-1.1,1.4v25.1c0,0.9,0.4,1.4,1.1,1.4c0.8,0,1.1-0.4,1.1-1.4V6.3z M67.4,26.3c0-1.9-0.6-2.8-3.6-6.5
	c-2.3-3-3.4-5.1-3.4-8.2V6c0-4.1,2-6,6-6c4.2,0,5.8,2,5.8,6v6.8h-4.5V6c0-0.8-0.4-1.2-1.2-1.2S65.3,5.2,65.3,6v5.5
	c0,1.9,0.8,2.7,3.5,6.3c2.6,3.4,3.4,5.3,3.4,8.5v5.3c0,3.9-1.7,6.1-5.9,6.1c-4.1,0-6-2.2-6-6.1v-7.8H65v7.8c0,0.8,0.4,1.2,1.2,1.2
	c0.8,0,1.2-0.4,1.2-1.2C67.4,31.6,67.4,26.3,67.4,26.3z M78.2,37.3v-32h-3.6V0.4h12v4.9h-3.5v32H78.2z M89.9,37.3V0.4H100v4.9h-5.2
	V16h3.3v4.9h-3.3v11.5h5.5v4.9C100.3,37.3,89.9,37.3,89.9,37.3z M109.9,37.3l7-36.9h3.5l-7,36.9H109.9z M137.9,23.7h4.4v7.6
	c0,4.3-1.7,6.3-5.6,6.3c-4,0-6.1-2-6.1-6.2v-25c0-4.3,2.1-6.4,6.1-6.4c3.7,0,5.6,2,5.6,6.3v6.5h-4.4V6.3c0-0.9-0.4-1.4-1.1-1.4
	c-0.7,0-1.1,0.4-1.1,1.4v25.1c0,0.9,0.4,1.4,1.1,1.4c0.8,0,1.1-0.4,1.1-1.4C137.9,31.4,137.9,23.7,137.9,23.7z M153.4,37.3V20.9
	h-2.2v16.4h-4.9V0.4h4.9V16h2.2V0.4h4.8v36.9C158.2,37.3,153.4,37.3,153.4,37.3z M171,37.3l-0.5-5.2h-3.6l-0.6,5.2h-4.7L166,0.4h5.6
	l4.2,36.9C175.8,37.3,171,37.3,171,37.3z M169.9,27.6c-0.4-4.8-0.9-9.7-1.3-14.7c-0.4,5-0.8,9.9-1.3,14.7H169.9z M187.5,37.3
	c-3-14.2-3.8-18.5-4.5-22.6c0.1,4.3,0.1,8.7,0.1,13.1v9.5H179V0.4h5.6c2.5,15.6,3,19.3,3.6,23.1c-0.1-3.9-0.1-7.8-0.1-11.6V0.4h4.1
	v36.9L187.5,37.3L187.5,37.3z M196.5,37.3V0.4h10.1v4.9h-5.2V16h3.3v4.9h-3.3v11.5h5.5v4.9L196.5,37.3L196.5,37.3z M210.5,37.3V0.4
	h4.9v32h5.5v4.9C220.9,37.3,210.5,37.3,210.5,37.3z M230.2,37.3l7-36.9h3.5l-7,36.9H230.2z M258.3,37.3V20.9h-2.2v16.4h-4.9V0.4h4.9
	V16h2.2V0.4h4.8v36.9C263.1,37.3,258.3,37.3,258.3,37.3z M274.1,26.3c0-1.9-0.6-2.8-3.6-6.5c-2.3-3-3.4-5.1-3.4-8.2V6c0-4.1,2-6,6-6
	c4.2,0,5.8,2,5.8,6v6.8h-4.5V6c0-0.8-0.4-1.2-1.2-1.2S272,5.2,272,6v5.5c0,1.9,0.8,2.7,3.5,6.3c2.6,3.4,3.4,5.3,3.4,8.5v5.3
	c0,3.9-1.7,6.1-5.9,6.1c-4.1,0-6-2.2-6-6.1v-7.8h4.7v7.8c0,0.8,0.4,1.2,1.2,1.2c0.8,0,1.2-0.4,1.2-1.2L274.1,26.3L274.1,26.3z
	 M282.9,37.3V0.4h6.1c4,0,5.6,2.1,5.6,6.5v7.6c0,1.7-0.6,3.2-1.7,3.7c1.1,0.4,2.2,1.6,2.2,3.7V31c0,4.3-2.1,6.2-6.1,6.2L282.9,37.3
	L282.9,37.3z M290.1,6.7c0-0.9-0.4-1.4-1.1-1.4h-1.2v11.1h1.3c0.7,0,1.1-0.4,1.1-1.4L290.1,6.7L290.1,6.7z M290.1,22
	c0-0.9-0.4-1.4-1.1-1.4h-1.3v11.8h1.2c0.8,0,1.1-0.5,1.1-1.4L290.1,22L290.1,22z M305.9,23.7h4.4v7.6c0,4.3-1.7,6.3-5.6,6.3
	c-4,0-6.1-2-6.1-6.2v-25c0-4.3,2.1-6.4,6.1-6.4c3.7,0,5.6,2,5.6,6.3v6.5h-4.4V6.3c0-0.9-0.4-1.4-1.1-1.4s-1.1,0.4-1.1,1.4v25.1
	c0,0.9,0.4,1.4,1.1,1.4c0.8,0,1.1-0.4,1.1-1.4C305.9,31.4,305.9,23.7,305.9,23.7z M320.3,37.3l7-36.9h3.5l-7,36.9H320.3z
	 M348.7,37.3c-0.5-5.5-1-11-1.7-16.4h-0.8v16.4h-4.9V0.4h5.8c4.4,0,6.6,1.8,6.6,6.6v7.6c0,2.8-0.6,4.3-2.1,5.2
	c0.9,5.8,1.7,11.7,2.4,17.4h-5.3V37.3z M348.8,7c0-1.2-0.5-1.7-1.7-1.7h-0.9v11.1h1c1.1,0,1.6-0.6,1.6-1.7V7z M365.9,37.3l-0.5-5.2
	h-3.6l-0.6,5.2h-4.7L361,0.4h5.6l4.2,36.9L365.9,37.3L365.9,37.3z M364.9,27.6c-0.4-4.8-0.9-9.7-1.3-14.7c-0.4,5-0.8,9.9-1.3,14.7
	H364.9L364.9,27.6z M374.1,37.3V0.4h6c4.4,0,6.5,2.1,6.5,6.7v6c0,4.6-2.1,6.6-6.5,6.6H379v17.5L374.1,37.3L374.1,37.3z M381.8,7
	c0-1.2-0.5-1.7-1.7-1.7H379V15h1.1c1.1,0,1.7-0.6,1.7-1.7L381.8,7L381.8,7z M396.6,26.3c0-1.9-0.6-2.8-3.6-6.5
	c-2.3-3-3.4-5.1-3.4-8.2V6c0-4.1,2-6,6-6c4.2,0,5.8,2,5.8,6v6.8h-4.5V6c0-0.8-0.4-1.2-1.2-1.2s-1.2,0.4-1.2,1.2v5.5
	c0,1.9,0.8,2.7,3.5,6.3c2.6,3.4,3.4,5.3,3.4,8.5v5.3c0,3.9-1.7,6.1-5.9,6.1c-4.1,0-6-2.2-6-6.1v-7.8h4.7v7.8c0,0.8,0.4,1.2,1.2,1.2
	c0.8,0,1.2-0.4,1.2-1.2C396.6,31.6,396.6,26.3,396.6,26.3z M405.2,6.3c0-4.1,2-6.3,6-6.3s6,2.2,6,6.3v25.1c0,4.1-2,6.3-6,6.3
	s-6-2.2-6-6.3V6.3z M412.3,6.3c0-0.9-0.4-1.4-1.1-1.4s-1.1,0.4-1.1,1.4v25.1c0,0.9,0.4,1.4,1.1,1.4c0.8,0,1.1-0.4,1.1-1.4V6.3z
	 M421.3,37.3V0.4h6c4,0,6,2.4,6,6.3V31c0,4.3-2,6.3-6,6.3H421.3z M428.4,6.7c0-0.9-0.4-1.4-1.2-1.4h-1.1v27.1h1.1
	c0.8,0,1.2-0.5,1.2-1.4C428.4,31,428.4,6.7,428.4,6.7z M437.5,37.3V0.4h4.9v36.9C442.4,37.3,437.5,37.3,437.5,37.3z M455.2,37.3
	l-0.5-5.2H451l-0.6,5.2h-4.7l4.5-36.9h5.6l4.2,36.9H455.2L455.2,37.3z M454.1,27.6c-0.4-4.8-0.9-9.7-1.3-14.7
	c-0.4,5-0.8,9.9-1.3,14.7H454.1L454.1,27.6z M0,84.3V47.4h10.3v4.9H4.9v10.9h3.4v4.9H4.9v16.2H0z M20.5,84.3L20,79h-3.6l-0.6,5.2
	h-4.7l4.5-36.9h5.6l4.2,36.9h-4.9L20.5,84.3z M19.4,74.6c-0.4-4.8-0.9-9.7-1.3-14.7c-0.4,5-0.8,9.9-1.3,14.7
	C16.8,74.6,19.4,74.6,19.4,74.6z M34.9,73.3c0-1.9-0.6-2.8-3.6-6.5c-2.3-3-3.4-5.1-3.4-8.2V53c0-4.1,2-6,6-6c4.2,0,5.8,2,5.8,6v6.8
	h-4.5V53c0-0.8-0.4-1.2-1.2-1.2s-1.2,0.4-1.2,1.2v5.5c0,1.9,0.8,2.7,3.5,6.3c2.6,3.4,3.4,5.3,3.4,8.5v5.3c0,3.9-1.7,6.1-5.9,6.1
	c-4.1,0-6-2.2-6-6.1v-7.8h4.7v7.8c0,0.8,0.4,1.2,1.2,1.2s1.2-0.4,1.2-1.2V73.3z M50.8,84.3V67.9h-2.2v16.4h-4.9V47.4h4.9V63h2.2
	V47.4h4.8v36.9H50.8z M66.7,53.3c0-4.1,2-6.3,6-6.3s6,2.2,6,6.3v25.1c0,4.1-2,6.3-6,6.3s-6-2.2-6-6.3C66.7,78.4,66.7,53.3,66.7,53.3
	z M73.8,53.3c0-0.9-0.4-1.4-1.1-1.4s-1.1,0.4-1.1,1.4v25.1c0,0.9,0.4,1.4,1.1,1.4c0.8,0,1.1-0.4,1.1-1.4V53.3z M91.2,84.3
	c-3-14.2-3.8-18.5-4.5-22.6c0.1,4.3,0.1,8.7,0.1,13.1v9.5h-4.1V47.4h5.6c2.5,15.6,3,19.3,3.6,23.1c-0.1-3.9-0.1-7.8-0.1-11.6V47.4
	h4.1v36.9H91.2z M110.1,84.3v-32h-3.6v-4.9h12v4.9H115v32H110.1z M124.5,84.3l-3.9-36.9h5.1c1.6,18.2,2,23.4,2.2,28.4
	c0.3-5.1,0.7-10.1,2.4-28.4h4.8L131,84.3H124.5z M144.5,84.3l7-36.9h3.5l-7,36.9H144.5z M165.6,84.3V47.4h4.9v32h5.5v4.9H165.6z
	 M187.5,84.3L187,79h-3.6l-0.6,5.2h-4.7l4.5-36.9h5.6l4.2,36.9h-4.9V84.3z M186.4,74.6c-0.4-4.8-0.9-9.7-1.3-14.7
	c-0.4,5-0.8,9.9-1.3,14.7H186.4z M204.1,84.3c-3-14.2-3.8-18.5-4.5-22.6c0.1,4.3,0.1,8.7,0.1,13.1v9.5h-4.1V47.4h5.6
	c2.5,15.6,3,19.3,3.6,23.1c-0.1-3.9-0.1-7.8-0.1-11.6V47.4h4.1v36.9H204.1L204.1,84.3z M219.1,84.3l7-36.9h3.5l-7,36.9H219.1z
	 M239.4,84.3V47.4h4.9v32h5.5v4.9H239.4z M261.4,84.3l-0.5-5.2h-3.6l-0.6,5.2H252l4.5-36.9h5.6l4.2,36.9H261.4z M260.4,74.6
	c-0.4-4.8-0.9-9.7-1.3-14.7c-0.4,5-0.8,9.9-1.3,14.7H260.4L260.4,74.6z M275.8,73.3c0-1.9-0.6-2.8-3.6-6.5c-2.3-3-3.4-5.1-3.4-8.2
	V53c0-4.1,2-6,6-6c4.2,0,5.8,2,5.8,6v6.8H276V53c0-0.8-0.4-1.2-1.2-1.2c-0.8,0-1.2,0.4-1.2,1.2v5.5c0,1.9,0.8,2.7,3.5,6.3
	c2.6,3.4,3.4,5.3,3.4,8.5v5.3c0,3.9-1.7,6.1-5.9,6.1c-4.1,0-6-2.2-6-6.1v-7.8h4.7v7.8c0,0.8,0.4,1.2,1.2,1.2s1.2-0.4,1.2-1.2
	L275.8,73.3L275.8,73.3z M291.7,53.3c0-4.1,2-6.3,6-6.3s6,2.2,6,6.3v25.1c0,4.1-2,6.3-6,6.3s-6-2.2-6-6.3V53.3z M298.9,53.3
	c0-0.9-0.4-1.4-1.1-1.4s-1.1,0.4-1.1,1.4v25.1c0,0.9,0.4,1.4,1.1,1.4c0.8,0,1.1-0.4,1.1-1.4V53.3z M315.2,84.3
	c-0.5-5.5-1-11-1.7-16.4h-0.8v16.4h-4.9V47.4h5.8c4.4,0,6.6,1.8,6.6,6.6v7.6c0,2.8-0.6,4.3-2.1,5.2c0.9,5.8,1.7,11.7,2.4,17.4h-5.3
	V84.3z M315.2,54c0-1.2-0.5-1.7-1.7-1.7h-0.9v11.1h1c1.1,0,1.6-0.6,1.6-1.7V54z M324,84.3V47.4h10.1v4.9H329V63h3.3v4.9H329v11.5
	h5.5v4.9H324z M338.2,84.3V47.4h4.9v36.9H338.2z M355,84.3c-0.5-5.5-1-11-1.7-16.4h-0.8v16.4h-4.9V47.4h5.8c4.4,0,6.6,1.8,6.6,6.6
	v7.6c0,2.8-0.6,4.3-2.1,5.2c0.9,5.8,1.7,11.7,2.4,17.4H355V84.3z M355,54c0-1.2-0.5-1.7-1.7-1.7h-0.9v11.1h1c1.1,0,1.6-0.6,1.6-1.7
	V54z M363,53.3c0-4.1,2-6.3,6-6.3s6,2.2,6,6.3v25.1c0,4.1-2,6.3-6,6.3s-6-2.2-6-6.3V53.3z M370.2,53.3c0-0.9-0.4-1.4-1.1-1.4
	s-1.1,0.4-1.1,1.4v25.1c0,0.9,0.4,1.4,1.1,1.4c0.8,0,1.1-0.4,1.1-1.4V53.3z"/>
<polygon class="st0" points="0,156.8 0,119.9 4.9,119.9 4.9,151.9 10.4,151.9 10.4,156.8 "/>
<polygon class="st0" points="22,156.8 21.4,151.5 17.8,151.5 17.2,156.7 12.5,156.7 17,119.9 22.6,119.9 26.8,156.8 "/>
<path class="st0" d="M20.9,147.1c-0.4-4.8-0.9-9.7-1.3-14.7c-0.4,5-0.8,9.9-1.3,14.7C18.3,147.1,20.9,147.1,20.9,147.1z"/>
<path class="st0" d="M36.6,143.2H41v7.6c0,4.3-1.7,6.3-5.6,6.3c-4,0-6.1-2-6.1-6.2v-25c0-4.3,2.1-6.4,6.1-6.4c3.7,0,5.6,2,5.6,6.3
	v6.5h-4.4v-6.5c0-0.9-0.4-1.4-1.1-1.4c-0.7,0-1.1,0.4-1.1,1.4v25.1c0,0.9,0.4,1.4,1.1,1.4c0.8,0,1.1-0.4,1.1-1.4
	C36.6,150.9,36.6,143.2,36.6,143.2z"/>
<path class="st0" d="M44.7,125.8c0-4.1,2-6.3,6-6.3s6,2.2,6,6.3v25.1c0,4.1-2,6.3-6,6.3s-6-2.2-6-6.3V125.8z"/>
<path class="st0" d="M51.8,125.8c0-0.9-0.4-1.4-1.1-1.4c-0.7,0-1.1,0.4-1.1,1.4v25.1c0,0.9,0.4,1.4,1.1,1.4c0.8,0,1.1-0.4,1.1-1.4
	V125.8z"/>
<path class="st0" d="M67.4,145.8c0-1.9-0.6-2.8-3.6-6.5c-2.3-3-3.4-5.1-3.4-8.2v-5.6c0-4.1,2-6,6-6c4.2,0,5.8,2,5.8,6v6.8h-4.5v-6.8
	c0-0.8-0.4-1.2-1.2-1.2s-1.2,0.4-1.2,1.2v5.5c0,1.9,0.8,2.7,3.5,6.3c2.6,3.4,3.4,5.3,3.4,8.5v5.3c0,3.9-1.7,6.1-5.9,6.1
	c-4.1,0-6-2.2-6-6.1v-7.8H65v7.8c0,0.8,0.4,1.2,1.2,1.2c0.8,0,1.2-0.4,1.2-1.2C67.4,151.1,67.4,145.8,67.4,145.8z"/>
<polygon class="st0" points="78.2,156.8 78.2,124.8 74.6,124.8 74.6,119.9 86.6,119.9 86.6,124.8 83.1,124.8 83.1,156.8 "/>
<polygon class="st0" points="89.9,156.8 89.9,119.9 100,119.9 100,124.8 94.8,124.8 94.8,135.5 98.1,135.5 98.1,140.4 94.8,140.4 
	94.8,151.9 100.3,151.9 100.3,156.8 "/>
<polygon class="st0" points="109.9,156.8 116.9,119.9 120.4,119.9 113.4,156.8 "/>
<path class="st0" d="M137.9,143.2h4.4v7.6c0,4.3-1.7,6.3-5.6,6.3c-4,0-6.1-2-6.1-6.2v-25c0-4.3,2.1-6.4,6.1-6.4c3.7,0,5.6,2,5.6,6.3
	v6.5h-4.4v-6.5c0-0.9-0.4-1.4-1.1-1.4c-0.7,0-1.1,0.4-1.1,1.4v25.1c0,0.9,0.4,1.4,1.1,1.4c0.8,0,1.1-0.4,1.1-1.4
	C137.9,150.9,137.9,143.2,137.9,143.2z"/>
<polygon class="st0" points="153.4,156.8 153.4,140.4 151.2,140.4 151.2,156.8 146.3,156.8 146.3,119.9 151.2,119.9 151.2,135.5 
	153.4,135.5 153.4,119.9 158.2,119.9 158.2,156.8 "/>
<polygon class="st0" points="171,156.8 170.5,151.6 166.9,151.6 166.3,156.8 161.6,156.8 166,119.9 171.6,119.9 175.8,156.8 "/>
<path class="st0" d="M169.9,147.1c-0.4-4.8-0.9-9.7-1.3-14.7c-0.4,5-0.8,9.9-1.3,14.7H169.9z"/>
<path class="st0" d="M187.5,156.8c-3-14.2-3.8-18.5-4.5-22.6c0.1,4.3,0.1,8.7,0.1,13.1v9.5H179v-36.9h5.6c2.5,15.6,3,19.3,3.6,23.1
	c-0.1-3.9-0.1-7.8-0.1-11.6v-11.5h4.1v36.9H187.5L187.5,156.8z"/>
<polygon class="st0" points="196.5,156.8 196.5,119.9 206.6,119.9 206.6,124.8 201.4,124.8 201.4,135.5 204.7,135.5 204.7,140.4 
	201.4,140.4 201.4,151.9 206.9,151.9 206.9,156.8 196.5,156.8 "/>
<polygon class="st0" points="210.5,156.8 210.5,119.9 215.4,119.9 215.4,151.9 220.9,151.9 220.9,156.8 "/>
<polygon class="st0" points="230.2,156.8 237.2,119.9 240.7,119.9 233.7,156.8 "/>
<polygon class="st0" points="258.3,156.8 258.3,140.4 256.1,140.4 256.1,156.8 251.2,156.8 251.2,119.9 256.1,119.9 256.1,135.5 
	258.3,135.5 258.3,119.9 263.1,119.9 263.1,156.8 "/>
<path class="st0" d="M274.1,145.8c0-1.9-0.6-2.8-3.6-6.5c-2.3-3-3.4-5.1-3.4-8.2v-5.6c0-4.1,2-6,6-6c4.2,0,5.8,2,5.8,6v6.8h-4.5
	v-6.8c0-0.8-0.4-1.2-1.2-1.2s-1.2,0.4-1.2,1.2v5.5c0,1.9,0.8,2.7,3.5,6.3c2.6,3.4,3.4,5.3,3.4,8.5v5.3c0,3.9-1.7,6.1-5.9,6.1
	c-4.1,0-6-2.2-6-6.1v-7.8h4.7v7.8c0,0.8,0.4,1.2,1.2,1.2c0.8,0,1.2-0.4,1.2-1.2L274.1,145.8L274.1,145.8z"/>
<path class="st0" d="M282.9,156.8v-36.9h6.1c4,0,5.6,2.1,5.6,6.5v7.6c0,1.7-0.6,3.2-1.7,3.7c1.1,0.4,2.2,1.6,2.2,3.7v9.1
	c0,4.3-2.1,6.2-6.1,6.2L282.9,156.8L282.9,156.8z"/>
<path class="st0" d="M290.1,126.2c0-0.9-0.4-1.4-1.1-1.4h-1.2v11.1h1.3c0.7,0,1.1-0.4,1.1-1.4L290.1,126.2L290.1,126.2z"/>
<path class="st0" d="M290.1,141.5c0-0.9-0.4-1.4-1.1-1.4h-1.3v11.8h1.2c0.8,0,1.1-0.5,1.1-1.4L290.1,141.5L290.1,141.5z"/>
<path class="st0" d="M305.9,143.2h4.4v7.6c0,4.3-1.7,6.3-5.6,6.3c-4,0-6.1-2-6.1-6.2v-25c0-4.3,2.1-6.4,6.1-6.4c3.7,0,5.6,2,5.6,6.3
	v6.5h-4.4v-6.5c0-0.9-0.4-1.4-1.1-1.4s-1.1,0.4-1.1,1.4v25.1c0,0.9,0.4,1.4,1.1,1.4c0.8,0,1.1-0.4,1.1-1.4
	C305.9,150.9,305.9,143.2,305.9,143.2z"/>
<polygon class="st0" points="320.3,156.8 327.3,119.9 330.8,119.9 323.8,156.8 "/>
<path class="st0" d="M348.7,156.8c-0.5-5.5-1-11-1.7-16.4h-0.8v16.4h-4.9v-36.9h5.8c4.4,0,6.6,1.8,6.6,6.6v7.6
	c0,2.8-0.6,4.3-2.1,5.2c0.9,5.8,1.7,11.7,2.4,17.4h-5.3V156.8z"/>
<path class="st0" d="M348.8,126.5c0-1.2-0.5-1.7-1.7-1.7h-0.9v11.1h1c1.1,0,1.6-0.6,1.6-1.7V126.5z"/>
<polygon class="st0" points="365.9,156.8 365.4,151.6 361.8,151.6 361.2,156.8 356.5,156.8 361,119.9 366.6,119.9 370.8,156.8 
	365.9,156.8 "/>
<path class="st0" d="M364.9,147.1c-0.4-4.8-0.9-9.7-1.3-14.7c-0.4,5-0.8,9.9-1.3,14.7H364.9L364.9,147.1z"/>
<path class="st0" d="M374.1,156.8v-36.9h6c4.4,0,6.5,2.1,6.5,6.7v6c0,4.6-2.1,6.6-6.5,6.6H379v17.5L374.1,156.8L374.1,156.8z"/>
<path class="st0" d="M381.8,126.5c0-1.2-0.5-1.7-1.7-1.7H379v9.7h1.1c1.1,0,1.7-0.6,1.7-1.7L381.8,126.5L381.8,126.5z"/>
<path class="st0" d="M396.6,145.8c0-1.9-0.6-2.8-3.6-6.5c-2.3-3-3.4-5.1-3.4-8.2v-5.6c0-4.1,2-6,6-6c4.2,0,5.8,2,5.8,6v6.8h-4.5
	v-6.8c0-0.8-0.4-1.2-1.2-1.2s-1.2,0.4-1.2,1.2v5.5c0,1.9,0.8,2.7,3.5,6.3c2.6,3.4,3.4,5.3,3.4,8.5v5.3c0,3.9-1.7,6.1-5.9,6.1
	c-4.1,0-6-2.2-6-6.1v-7.8h4.7v7.8c0,0.8,0.4,1.2,1.2,1.2c0.8,0,1.2-0.4,1.2-1.2C396.6,151.1,396.6,145.8,396.6,145.8z"/>
<path class="st0" d="M405.2,125.8c0-4.1,2-6.3,6-6.3s6,2.2,6,6.3v25.1c0,4.1-2,6.3-6,6.3s-6-2.2-6-6.3V125.8z"/>
<path class="st0" d="M412.3,125.8c0-0.9-0.4-1.4-1.1-1.4s-1.1,0.4-1.1,1.4v25.1c0,0.9,0.4,1.4,1.1,1.4c0.8,0,1.1-0.4,1.1-1.4V125.8z
	"/>
<path class="st0" d="M421.3,156.8v-36.9h6c4,0,6,2.4,6,6.3v24.3c0,4.3-2,6.3-6,6.3H421.3z"/>
<path class="st0" d="M428.4,126.2c0-0.9-0.4-1.4-1.2-1.4h-1.1v27.1h1.1c0.8,0,1.2-0.5,1.2-1.4C428.4,150.5,428.4,126.2,428.4,126.2z
	"/>
<rect x="437.5" y="119.9" class="st0" width="4.9" height="36.9"/>
<polygon class="st0" points="455.2,156.8 454.7,151.6 451,151.6 450.4,156.8 445.7,156.8 450.2,119.9 455.8,119.9 460,156.8 
	455.2,156.8 "/>
<path class="st0" d="M454.1,147.1c-0.4-4.8-0.9-9.7-1.3-14.7c-0.4,5-0.8,9.9-1.3,14.7H454.1L454.1,147.1z"/>
<polygon class="st0" points="0,203.8 0,166.9 10.3,166.9 10.3,171.8 4.9,171.8 4.9,182.7 8.3,182.7 8.3,187.6 4.9,187.6 4.9,203.8 
	"/>
<polygon class="st0" points="20.5,203.8 20,198.5 16.4,198.5 15.8,203.7 11.1,203.7 15.6,166.8 21.2,166.8 25.4,203.7 20.5,203.7 
	"/>
<path class="st0" d="M19.4,194.1c-0.4-4.8-0.9-9.7-1.3-14.7c-0.4,5-0.8,9.9-1.3,14.7C16.8,194.1,19.4,194.1,19.4,194.1z"/>
<path class="st0" d="M34.9,192.8c0-1.9-0.6-2.8-3.6-6.5c-2.3-3-3.4-5.1-3.4-8.2v-5.6c0-4.1,2-6,6-6c4.2,0,5.8,2,5.8,6v6.8h-4.5v-6.8
	c0-0.8-0.4-1.2-1.2-1.2s-1.2,0.4-1.2,1.2v5.5c0,1.9,0.8,2.7,3.5,6.3c2.6,3.4,3.4,5.3,3.4,8.5v5.3c0,3.9-1.7,6.1-5.9,6.1
	c-4.1,0-6-2.2-6-6.1v-7.8h4.7v7.8c0,0.8,0.4,1.2,1.2,1.2s1.2-0.4,1.2-1.2V192.8z"/>
<polygon class="st0" points="50.8,203.8 50.8,187.4 48.6,187.4 48.6,203.8 43.7,203.8 43.7,166.9 48.6,166.9 48.6,182.5 50.8,182.5 
	50.8,166.9 55.6,166.9 55.6,203.8 "/>
<path class="st0" d="M59.7,172.8c0-4.1,2-6.3,6-6.3s6,2.2,6,6.3v25.1c0,4.1-2,6.3-6,6.3s-6-2.2-6-6.3
	C59.7,197.9,59.7,172.8,59.7,172.8z"/>
<path class="st0" d="M66.8,172.8c0-0.9-0.4-1.4-1.1-1.4s-1.1,0.4-1.1,1.4v25.1c0,0.9,0.4,1.4,1.1,1.4c0.8,0,1.1-0.4,1.1-1.4V172.8z"
	/>
<path class="st0" d="M84.2,203.8c-3-14.2-3.8-18.5-4.5-22.6c0.1,4.3,0.1,8.7,0.1,13.1v9.5h-4.1v-36.9h5.6c2.5,15.6,3,19.3,3.6,23.1
	c-0.1-3.9-0.1-7.8-0.1-11.6v-11.5h4.1v36.9H84.2z"/>
<polygon class="st0" points="103.1,203.8 103.1,171.8 99.5,171.8 99.5,166.9 111.5,166.9 111.5,171.8 108,171.8 108,203.8 "/>
<path class="st0" d="M117.5,203.8l-3.9-36.9h5.1c1.6,18.2,2,23.4,2.2,28.4c0.3-5.1,0.7-10.1,2.4-28.4h4.8l-4.1,36.9H117.5z"/>
<polygon class="st0" points="137.5,203.8 144.5,166.9 148,166.9 141,203.8 "/>
<polygon class="st0" points="158.6,203.8 158.6,166.9 163.5,166.9 163.5,198.9 169,198.9 169,203.8 "/>
<polygon class="st0" points="180.5,203.8 180,198.5 176.4,198.5 175.8,203.7 171.1,203.7 175.6,166.8 181.2,166.8 185.4,203.7 
	180.5,203.7 "/>
<path class="st0" d="M179.4,194.1c-0.4-4.8-0.9-9.7-1.3-14.7c-0.4,5-0.8,9.9-1.3,14.7H179.4z"/>
<path class="st0" d="M197.1,203.8c-3-14.2-3.8-18.5-4.5-22.6c0.1,4.3,0.1,8.7,0.1,13.1v9.5h-4.1v-36.9h5.6c2.5,15.6,3,19.3,3.6,23.1
	c-0.1-3.9-0.1-7.8-0.1-11.6v-11.5h4.1v36.9H197.1L197.1,203.8z"/>
<polygon class="st0" points="212.1,203.8 219.1,166.9 222.6,166.9 215.6,203.8 "/>
<polygon class="st0" points="232.4,203.8 232.4,166.9 237.3,166.9 237.3,198.9 242.8,198.9 242.8,203.8 "/>
<polygon class="st0" points="254.4,203.8 253.9,198.6 250.3,198.6 249.7,203.8 245,203.8 249.5,166.9 255.1,166.9 259.3,203.8 "/>
<path class="st0" d="M253.4,194.1c-0.4-4.8-0.9-9.7-1.3-14.7c-0.4,5-0.8,9.9-1.3,14.7H253.4L253.4,194.1z"/>
<path class="st0" d="M268.8,192.8c0-1.9-0.6-2.8-3.6-6.5c-2.3-3-3.4-5.1-3.4-8.2v-5.6c0-4.1,2-6,6-6c4.2,0,5.8,2,5.8,6v6.8H269v-6.8
	c0-0.8-0.4-1.2-1.2-1.2c-0.8,0-1.2,0.4-1.2,1.2v5.5c0,1.9,0.8,2.7,3.5,6.3c2.6,3.4,3.4,5.3,3.4,8.5v5.3c0,3.9-1.7,6.1-5.9,6.1
	c-4.1,0-6-2.2-6-6.1v-7.8h4.7v7.8c0,0.8,0.4,1.2,1.2,1.2s1.2-0.4,1.2-1.2L268.8,192.8L268.8,192.8z"/>
<path class="st0" d="M284.7,172.8c0-4.1,2-6.3,6-6.3s6,2.2,6,6.3v25.1c0,4.1-2,6.3-6,6.3s-6-2.2-6-6.3V172.8z"/>
<path class="st0" d="M291.9,172.8c0-0.9-0.4-1.4-1.1-1.4s-1.1,0.4-1.1,1.4v25.1c0,0.9,0.4,1.4,1.1,1.4c0.8,0,1.1-0.4,1.1-1.4V172.8z
	"/>
<path class="st0" d="M308.2,203.8c-0.5-5.5-1-11-1.7-16.4h-0.8v16.4h-4.9v-36.9h5.8c4.4,0,6.6,1.8,6.6,6.6v7.6
	c0,2.8-0.6,4.3-2.1,5.2c0.9,5.8,1.7,11.7,2.4,17.4h-5.3V203.8z"/>
<path class="st0" d="M308.2,173.5c0-1.2-0.5-1.7-1.7-1.7h-0.9v11.1h1c1.1,0,1.6-0.6,1.6-1.7V173.5z"/>
<polygon class="st0" points="317,203.8 317,166.9 327.1,166.9 327.1,171.8 322,171.8 322,182.5 325.3,182.5 325.3,187.4 322,187.4 
	322,198.9 327.5,198.9 327.5,203.8 "/>
<rect x="58.9" y="47.4" class="st0" width="4.9" height="36.9"/>
<path class="st0" d="M348,203.8c-0.5-5.5-1-11-1.7-16.4h-0.8v16.4h-4.9v-36.9h5.8c4.4,0,6.6,1.8,6.6,6.6v7.6c0,2.8-0.6,4.3-2.1,5.2
	c0.9,5.8,1.7,11.7,2.4,17.4H348V203.8z"/>
<path class="st0" d="M348,173.5c0-1.2-0.5-1.7-1.7-1.7h-0.9v11.1h1c1.1,0,1.6-0.6,1.6-1.7V173.5z"/>
<path class="st0" d="M356,172.8c0-4.1,2-6.3,6-6.3s6,2.2,6,6.3v25.1c0,4.1-2,6.3-6,6.3s-6-2.2-6-6.3V172.8z"/>
<path class="st0" d="M363.2,172.8c0-0.9-0.4-1.4-1.1-1.4s-1.1,0.4-1.1,1.4v25.1c0,0.9,0.4,1.4,1.1,1.4c0.8,0,1.1-0.4,1.1-1.4V172.8z
	"/>
</svg>
